<?xml version="1.0" standalone="no"?><!DOCTYPE svg PUBLIC "-//W3C//DTD SVG 1.1//EN" "http://www.w3.org/Graphics/SVG/1.1/DTD/svg11.dtd"><svg t="1729076010228" class="icon" viewBox="0 0 1024 1024" version="1.1" xmlns="http://www.w3.org/2000/svg" p-id="15042" xmlns:xlink="http://www.w3.org/1999/xlink" width="200" height="200"><path d="M707.248 976c-4.288 0-8.608-0.464-12.896-1.408a59.136 59.136 0 0 1-43.232-38.032l-102.736-287.04-88.096 83.248 18.816 136.928a59.824 59.824 0 0 1-16.48 49.728l-37.36 38a59.12 59.12 0 0 1-48.976 17.424 59.168 59.168 0 0 1-44-27.792l-92.112-148.688-166.192-113.28a59.248 59.248 0 0 1-25.68-43.184 59.232 59.232 0 0 1 16.608-47.408l37.12-38.048a59.296 59.296 0 0 1 54.08-16.816l142.368 28.016 84.16-93.536-293.968-108.864a59.2 59.2 0 0 1-37.36-42.752 59.152 59.152 0 0 1 15.6-54.608l74.688-76.032a59.36 59.36 0 0 1 53.712-16.704l387.808 75.232 123.12-123.104C757.504 75.472 810.208 48 858.496 48h0.256c31.728 0.064 60.256 12.096 82.544 34.8 15.952 16.176 89.2 103.936-42.4 237.92l-124.96 124.816 66.624 384.688a59.6 59.6 0 0 1-16.16 51.76l-74.864 76.192A59.12 59.12 0 0 1 707.248 976zM118.096 634.928l160.64 109.472c6.88 4.656 12.704 10.72 17.072 17.792l88.288 142.544 28.864-29.36-18.848-137.072a59.52 59.52 0 0 1 18.064-51.296l98.272-92.88c14.64-13.84 200.416-179.312 214.08-192.96l127.248-127.12c57.744-58.768 73.6-112.976 42.224-144.768-9.904-10.08-21.456-14.96-35.392-14.992h-0.128c-29.744 0-67.088 21.2-105.216 59.728l-125.824 125.808a59.392 59.392 0 0 1-53.408 16.32l-387.696-75.232-64.688 65.856 293.504 108.672a59.376 59.376 0 0 1 23.568 95.472l-93.488 103.936a59.84 59.84 0 0 1-55.728 18.592l-142.56-28.064-28.848 29.552z" fill="#646566" p-id="15043" data-spm-anchor-id="a313x.search_index.0.i0.6f6b3a81tRIQQT" class="selected"></path></svg>